PathFileType	4	(X/Y/Z)	D:\TRACE\spotREDO_2-26-24\spot_justBody_Motion_2_5-v60.trc
DataRate	CameraRate	NumFrames	NumMarkers	Units	OrigDataRate	OrigDataStartFrame	OrigNumFrames
100.00	100.00	      35	9	mm	100.00	2626	      7000
Frame#	Time	front left toe			Front right toe			aft left toe			aft right toe			Arm			FL body			FR body			AL Body			AR Body			
		X1	Y1	Z1	X2	Y2	Z2	X3	Y3	Z3	X4	Y4	Z4	X5	Y5	Z5	X6	Y6	Z6	X7	Y7	Z7	X8	Y8	Z8	X9	Y9	Z9	

2626	26.250	-292.89401	22.59699	-45.77189	223.36734	17.56265	-92.22427	-233.17262	39.91332	392.89520	254.21657	36.33883	338.16531	-21.16117	823.43304	-257.73477	-100.06136	562.68317	-230.37906	54.92180	568.12891	-252.01138	13.25361	550.07452	646.51416	161.54677	551.15491	627.91742	
2627	26.260	-293.37384	22.38320	-46.27549	222.88194	17.20248	-92.47627	-233.83662	40.51361	392.65466	253.96390	36.82603	338.06088	-22.37215	823.02930	-258.21136	-100.77028	562.26306	-230.57465	53.98139	567.97156	-252.14143	12.36929	550.81732	646.34106	160.60765	551.99658	627.88879	
2628	26.270	-294.15845	22.08604	-46.59930	222.30244	17.03474	-92.81999	-234.34846	41.21636	392.08331	253.05487	37.58689	337.67731	-23.50782	822.70154	-258.69632	-101.57341	561.88910	-230.23210	53.34280	567.74866	-252.14667	11.25205	551.75751	646.31390	159.57980	552.99200	627.67908	
2629	26.280	-294.66116	22.05073	-46.68020	221.62415	16.83630	-93.10285	-234.90405	41.78643	391.64511	252.56168	38.04102	337.20825	-24.91882	822.59918	-259.35892	-102.66429	561.62024	-230.82732	52.20228	567.49329	-252.50386	10.48992	552.75073	645.97687	158.47171	554.22949	627.49908	
2630	26.290	-295.23691	21.72210	-46.94467	221.40231	16.91529	-93.16791	-235.49498	42.34685	391.47598	251.96429	38.64399	336.95129	-25.78539	822.12476	-259.67068	-103.66913	561.22803	-230.94925	51.16409	567.30316	-252.73528	9.45014	553.58875	645.73291	157.84523	555.13373	627.35114	
2631	26.300	-295.67593	21.66845	-47.17146	220.58849	16.50376	-93.55939	-236.06433	42.91058	391.28705	251.32320	39.36129	336.58212	-27.22857	821.82794	-260.50668	-104.49587	560.88098	-231.27484	50.23794	567.00842	-253.03375	8.55420	554.67487	645.47498	156.75768	556.20551	627.10217	
2632	26.310	-296.34042	21.70991	-47.45916	220.61655	16.46635	-93.73412	-236.68832	43.65537	390.78598	250.97531	39.78254	336.30835	-28.15824	821.61688	-260.91431	-105.68880	560.83673	-231.79968	49.22850	566.94550	-253.29407	7.21896	555.69250	644.87994	155.54114	557.27185	626.87756	
2633	26.320	-297.09528	21.42129	-47.68008	220.08612	16.29472	-94.11932	-237.11980	44.41029	390.29108	250.43332	40.40577	336.08621	-29.76226	821.29932	-261.70139	-107.02715	560.69672	-232.58975	48.06044	566.99542	-253.86462	6.38083	556.36530	644.90900	154.59798	558.30957	626.20435	
2634	26.330	-297.29248	21.33934	-47.88512	219.55341	16.17162	-94.39315	-237.42274	44.95972	390.16824	249.96219	40.96121	335.84644	-31.07229	821.25873	-262.48907	-107.80316	560.21161	-232.33672	47.62688	566.55609	-253.60004	5.25746	557.19171	644.45502	153.39760	559.31934	625.95294	
2635	26.340	-297.42819	21.25385	-48.17697	219.18350	16.04805	-94.64860	-237.64078	45.37183	390.15475	249.61444	41.71486	335.46375	-32.27282	821.07593	-263.19717	-108.82240	560.19153	-233.02254	45.92995	566.81708	-254.66393	4.20622	558.14398	643.95404	152.22923	560.43164	625.56708	
2636	26.350	-297.84076	20.91451	-48.62169	218.89877	16.02698	-94.90442	-238.09242	46.18114	389.77664	249.28333	42.15635	334.97925	-34.04964	820.92920	-264.14911	-109.88304	559.74060	-233.54802	44.96852	566.68054	-255.25978	2.87244	559.10663	643.46985	150.75169	561.42505	624.88354	
2637	26.360	-298.08646	20.73033	-48.89445	218.46223	15.90369	-95.22768	-238.53972	46.76950	389.26978	248.98471	42.72955	334.69913	-35.42812	820.71814	-264.72729	-110.85780	559.43573	-234.25620	44.05956	566.64490	-255.70042	1.78926	559.72925	642.94757	149.68771	562.45142	624.44281	
2638	26.370	-298.38791	20.39727	-49.14191	218.14549	15.69386	-95.55602	-239.05063	47.20369	389.08231	248.71527	43.53551	334.40875	-36.92928	820.49237	-265.86255	-111.95281	559.12146	-234.88513	42.94181	566.47388	-256.43835	0.20628	559.47992	640.64374	148.39018	563.66766	623.87622	
2639	26.380	-298.62750	20.15304	-49.37844	217.79501	15.49887	-95.96259	-239.12828	47.57454	389.03607	248.72166	43.81318	334.38174	-38.34921	820.15601	-266.97366	-113.16318	558.76489	-235.66624	41.57333	566.34436	-256.99033	-1.07070	560.36072	639.94708	146.90833	564.89001	623.04694	
2640	26.390	-298.87384	20.01473	-49.52001	217.50200	15.31352	-96.25599	-239.16957	48.11402	388.85352	248.40749	44.47028	333.92685	-39.84621	819.91284	-267.78781	-114.27547	558.51440	-235.99748	40.63713	566.30615	-257.76880	-2.18345	561.37384	639.38202	146.02675	565.69257	622.37659	
2641	26.400	-298.98987	19.78247	-49.62743	217.44627	15.18543	-96.36827	-239.32080	48.59010	388.62003	248.54501	44.81180	333.73334	-41.19089	819.66382	-268.65601	-115.49171	558.16852	-236.78186	39.22869	566.08942	-258.21979	-3.40947	562.33209	638.74854	144.34161	566.61316	621.60730	
2642	26.410	-298.97729	19.61742	-49.87609	217.33217	15.12684	-96.56992	-239.48839	49.14711	388.06696	248.70674	45.31097	333.24338	-43.17752	819.34973	-269.82877	-117.03781	557.91364	-237.78935	38.20957	565.93176	-259.08939	-4.87566	564.69690	639.12451	143.66527	568.09918	621.08423	
2643	26.420	-299.03717	19.35827	-50.25895	217.34149	15.09163	-96.76477	-239.53079	49.74343	387.80942	248.62389	46.01783	332.93384	-44.48041	818.94055	-270.93250	-117.78429	557.28918	-238.15056	37.40146	565.47394	-259.16479	-5.80869	565.46924	638.42163	141.99246	569.29126	620.18665	
2644	26.430	-299.19025	19.21622	-50.60070	217.31238	15.05623	-96.97005	-239.59415	50.14756	387.48535	248.38849	46.68342	332.48984	-46.29137	818.65936	-271.83102	-119.00848	556.72864	-238.90508	35.86880	565.59698	-260.56943	-7.18454	566.53052	637.62720	140.63489	570.66187	619.63739	
2645	26.440	-299.27524	19.01155	-50.73159	217.15881	14.88443	-97.39262	-239.63228	50.60144	387.17245	248.24803	47.02183	332.32123	-47.73556	818.19360	-272.95511	-120.11350	556.42603	-239.73120	34.80284	565.41357	-261.16583	-8.24533	567.47925	636.97986	139.77306	571.74768	618.80640	
2646	26.450	-299.25388	18.96007	-50.84666	217.09695	14.70334	-97.67035	-239.71844	51.10568	386.90961	248.18048	47.58541	332.18091	-49.56614	817.94287	-274.23529	-121.35470	556.03735	-240.44992	33.57845	565.17932	-262.04309	-9.24981	568.46649	636.15466	138.82375	572.84131	618.10699	
2647	26.460	-299.19424	18.50808	-51.06922	217.11301	14.58022	-97.97465	-239.74530	51.33145	386.78232	248.18878	48.22552	331.65887	-51.14058	817.55518	-275.43146	-122.84740	556.02618	-241.66435	32.14382	565.04089	-262.77106	-10.62268	569.52057	635.28162	137.47942	574.00476	616.96869	
2648	26.470	-299.22192	18.37007	-51.31797	217.28935	14.48266	-98.12817	-239.52527	51.70623	386.57199	248.29823	48.59053	331.24744	-52.62569	817.36115	-276.39703	-123.54742	555.31146	-241.91748	31.29741	564.79108	-263.61514	-11.53085	570.45673	634.48553	136.50063	575.15424	616.39453	
2649	26.480	-298.89838	18.04922	-51.50304	218.08472	14.63073	-98.17443	-239.20641	52.03909	386.42920	248.55675	48.97335	330.96185	-53.86834	816.95306	-277.56638	-124.46065	554.88123	-242.61086	30.05348	564.64685	-264.52710	-12.75518	571.31714	633.75226	135.21199	576.44373	615.39667	
2650	26.490	-298.76691	18.11524	-51.79194	217.97984	14.24249	-98.72773	-238.96524	52.32228	386.22275	248.81485	49.44898	330.84869	-55.57664	816.80640	-278.75739	-125.80171	554.71179	-243.65027	29.02480	564.44672	-265.13327	-13.92266	572.37201	632.95313	134.21330	577.39221	614.75165	
2651	26.500	-298.55048	18.04571	-51.94416	218.23409	14.24452	-99.08949	-238.67694	53.07331	385.86057	249.03719	50.05030	330.43002	-56.77172	816.61676	-280.21323	-126.89385	554.38049	-244.53410	27.72660	564.18219	-266.21854	-14.91432	573.38025	632.02386	132.81633	578.39307	613.79431	
2652	26.510	-298.48785	18.06461	-52.09499	218.45316	14.19960	-99.24860	-238.53432	53.60429	385.49710	249.36714	50.52210	330.14169	-57.85667	816.28613	-281.25946	-128.10457	554.09692	-245.33932	26.80728	563.86163	-267.01190	-16.27199	574.25238	630.92920	131.86577	579.38110	612.83136	
2653	26.520	-298.16064	17.77360	-52.32649	218.81583	14.04544	-99.26280	-238.32082	53.91580	385.27051	249.66393	50.90814	329.72781	-59.08361	815.87421	-282.39679	-129.11890	553.83044	-246.29286	24.86725	563.80182	-268.12219	-17.24039	575.34039	630.07666	130.83659	580.20380	611.91833	
2654	26.530	-297.93210	17.51203	-52.61969	218.96608	14.11763	-99.42748	-237.97000	53.99484	385.09222	249.91362	51.15270	329.47897	-60.29298	815.73792	-283.76932	-130.51851	553.64063	-247.19812	24.05948	563.01385	-268.46454	-18.42387	576.22040	629.23364	129.56911	581.23273	610.97943	
2655	26.540	-297.34619	17.16426	-52.83040	219.16940	14.04378	-99.83006	-237.60870	54.19882	384.90747	250.38994	51.56953	329.43811	-61.31051	815.38757	-284.98184	-131.57220	553.41589	-248.08249	22.84560	562.76105	-269.35309	-19.67375	577.06274	628.16205	128.30052	582.01953	610.04431	
2656	26.550	-297.07593	17.11852	-52.87594	219.62318	14.10054	-100.02735	-237.35329	54.38400	384.68112	250.46594	51.89902	329.09711	-62.39151	815.09644	-286.29697	-132.87108	553.30353	-249.03403	21.73148	563.06464	-270.88068	-20.68351	577.90869	627.34863	127.13054	582.57471	608.70288	
2657	26.560	-296.76715	17.14459	-52.92693	220.07669	13.95934	-100.28282	-236.98038	54.45324	384.55786	250.77963	52.45581	328.81531	-63.42252	814.84540	-287.58084	-134.66133	553.56592	-250.72319	20.48426	562.69745	-271.91385	-22.03777	578.76837	626.21289	126.24374	583.23822	608.02338	
2658	26.570	-296.43887	16.91126	-53.08815	220.32365	13.90938	-100.35719	-236.54749	54.80665	384.43234	251.04921	52.88345	328.53143	-64.33087	814.63782	-288.86179	-135.39848	553.00293	-250.94649	19.29605	562.38342	-272.78833	-23.11681	579.54620	625.13416	124.65562	584.10638	606.79614	
2659	26.580	-296.18503	16.84944	-53.21510	220.75267	13.93101	-100.49175	-236.10367	54.96911	384.35794	251.27361	53.10980	328.11191	-65.35948	814.32513	-290.30130	-136.53127	552.91980	-251.96049	18.27892	562.16278	-273.84573	-24.34887	580.46826	623.99713	123.74196	584.61975	605.79095	
2660	26.590	-295.57336	16.61350	-53.37735	221.09126	13.95834	-100.49049	-235.82431	55.30921	384.18729	251.59773	53.32201	327.86276	-66.22065	814.01813	-291.60489	-137.94034	552.63641	-253.09685	16.72655	561.71277	-274.95514	-25.67277	581.17413	623.00189	122.40673	585.28662	604.67474	
